<svg xmlns:dc="http://purl.org/dc/elements/1.1/" xmlns:cc="http://creativecommons.org/ns#" xmlns:rdf="http://www.w3.org/1999/02/22-rdf-syntax-ns#" xmlns:svg="http://www.w3.org/2000/svg" xmlns="http://www.w3.org/2000/svg" xmlns:sodipodi="http://sodipodi.sourceforge.net/DTD/sodipodi-0.dtd" xmlns:inkscape="http://www.inkscape.org/namespaces/inkscape" viewBox="0 0 119.00098 28.785669" version="1.1" id="svg19941" inkscape:version="0.92.4 (5da689c313, 2019-01-14)" sodipodi:docname="hydroflask.svg">
  <defs id="defs19935"/>
  <sodipodi:namedview id="base" pagecolor="#ffffff" bordercolor="#666666" borderopacity="1.0" inkscape:pageopacity="0.0" inkscape:pageshadow="2" inkscape:zoom="3.2556934" inkscape:cx="222.99397" inkscape:cy="52.508351" inkscape:document-units="mm" inkscape:current-layer="layer1" showgrid="false" fit-margin-top="0" fit-margin-left="0" fit-margin-right="0" fit-margin-bottom="0" inkscape:window-width="1920" inkscape:window-height="1001" inkscape:window-x="-9" inkscape:window-y="-9" inkscape:window-maximized="1"/>
  <metadata id="metadata19938">
    <rdf:RDF>
      <cc:Work rdf:about="">
        <dc:format>image/svg+xml</dc:format>
        <dc:type rdf:resource="http://purl.org/dc/dcmitype/StillImage"/>
        <dc:title/>
      </cc:Work>
    </rdf:RDF>
  </metadata>
  <g inkscape:label="Layer 1" inkscape:groupmode="layer" id="layer1" transform="translate(77.521322,-133.9405)">
    <g transform="translate(279.57427,-73.626351)" id="g19906">
      <path style="stroke-width:0.26458332" inkscape:connector-curvature="0" d="m -347.89471,215.15769 c 0.0265,0.37041 0.3175,0.66146 0.68792,0.66146 0.37042,0 0.66146,-0.29105 0.68792,-0.66146 l 0.34396,-6.00604 c 0.0265,-0.29105 -0.0794,-0.58209 -0.29105,-0.79375 -0.21166,-0.21167 -0.47625,-0.29105 -0.74083,-0.29105 -0.26458,0 -0.52917,0.10584 -0.74083,0.29105 -0.21167,0.21166 -0.3175,0.5027 -0.29104,0.79375 z" id="path19761"/>
      <path style="stroke-width:0.26458332" inkscape:connector-curvature="0" d="m -344.16408,218.33269 c -0.3175,-0.18521 -0.74083,-0.0794 -0.9525,0.26458 v 0 c -0.42333,0.74083 -1.21708,1.21708 -2.11667,1.21708 -0.89958,0 -1.69333,-0.5027 -2.11666,-1.21708 v 0 c -0.18521,-0.3175 -0.60855,-0.44979 -0.9525,-0.26458 -0.3175,0.18521 -0.4498,0.60854 -0.26459,0.9525 v 0 c 0.66146,1.13771 1.905,1.905 3.30729,1.905 1.42875,0 2.64584,-0.76729 3.3073,-1.905 v 0 c 0.23812,-0.3175 0.13229,-0.74084 -0.21167,-0.9525" id="path19763"/>
      <path style="stroke-width:0.26458332" inkscape:connector-curvature="0" d="m -350.03783,215.73977 c 0.10583,0.34396 0.47625,0.55563 0.82021,0.44979 0.34396,-0.10583 0.58208,-0.44979 0.50271,-0.82021 l -1.0848,-5.23875 c -0.0529,-0.26458 -0.21166,-0.5027 -0.47625,-0.66145 -0.23812,-0.1323 -0.5027,-0.15875 -0.76729,-0.10584 -0.23812,0.0529 -0.47625,0.23813 -0.60854,0.47625 -0.15875,0.26459 -0.15875,0.55563 -0.0794,0.82021 z" id="path19765"/>
      <path style="stroke-width:0.26458332" inkscape:connector-curvature="0" d="m -351.86346,216.9304 c 0.21167,0.3175 0.60855,0.39687 0.92605,0.21166 0.3175,-0.18521 0.44979,-0.58208 0.26458,-0.89958 l -2.11667,-4.20688 c -0.10583,-0.23812 -0.3175,-0.42333 -0.60854,-0.5027 -0.26458,-0.0794 -0.50271,-0.0265 -0.71437,0.10583 -0.21167,0.13229 -0.37042,0.3175 -0.4498,0.58208 -0.0794,0.26459 -0.0265,0.55563 0.1323,0.76729 z" id="path19767"/>
      <path style="stroke-width:0.26458332" inkscape:connector-curvature="0" d="m -345.22241,216.18956 c 0.34395,0.10584 0.71437,-0.10583 0.8202,-0.44979 l 1.69334,-5.08 c 0.0794,-0.26458 0.0529,-0.55562 -0.0794,-0.82021 -0.13229,-0.23812 -0.37041,-0.39687 -0.60854,-0.47625 -0.23812,-0.0529 -0.52917,-0.0265 -0.76729,0.10584 -0.26458,0.15875 -0.42333,0.39687 -0.47625,0.66145 l -1.08479,5.23875 c -0.0529,0.37042 0.15875,0.71438 0.50271,0.82021" id="path19769"/>
      <path style="stroke-width:0.26458332" inkscape:connector-curvature="0" d="m -343.50262,217.14206 c 0.3175,0.18521 0.71437,0.0794 0.92604,-0.21166 l 2.59292,-3.9423 c 0.15875,-0.21166 0.21166,-0.5027 0.13229,-0.76729 -0.0794,-0.26458 -0.23813,-0.44979 -0.44979,-0.58208 -0.21167,-0.13229 -0.47625,-0.15875 -0.71438,-0.10583 -0.26458,0.0794 -0.50271,0.26458 -0.60854,0.5027 l -2.11667,4.20688 c -0.18521,0.3175 -0.0529,0.74083 0.23813,0.89958" id="path19771"/>
      <path style="stroke-width:0.26458332" inkscape:connector-curvature="0" d="m -337.99929,233.41394 -3.67771,-4.89479 c -0.66146,-0.87313 -1.05833,-1.98438 -1.05833,-3.12209 0,-1.16416 0.39687,-2.24896 1.05833,-3.12208 l 3.67771,-4.92125 c 0.37042,-0.66146 0.15875,-1.50813 -0.50271,-1.87854 -0.66146,-0.37042 -1.50812,-0.15875 -1.87854,0.50271 l -2.30187,3.9952 c -0.97896,1.66688 -2.72521,2.61938 -4.52438,2.59292 -1.79917,0 -3.57187,-0.92604 -4.52437,-2.59292 l -2.30188,-3.9952 c -0.37042,-0.66146 -1.21708,-0.87313 -1.87854,-0.50271 -0.66146,0.37041 -0.87313,1.21708 -0.50271,1.87854 l 3.67771,4.89479 c 0.66146,0.87313 1.05833,1.98438 1.05833,3.12208 0,1.16417 -0.39687,2.24896 -1.05833,3.12209 l -3.67771,4.89479 c -0.37042,0.66146 -0.15875,1.50812 0.50271,1.87854 0.66146,0.37042 1.50812,0.15875 1.87854,-0.50271 l 2.30188,-3.99521 c 0.97895,-1.66687 2.7252,-2.61937 4.52437,-2.59291 1.79917,0 3.57188,0.92604 4.52438,2.59291 l 2.30187,3.99521 c 0.37042,0.66146 1.21708,0.87313 1.87854,0.50271 0.66146,-0.37042 0.87313,-1.21708 0.50271,-1.85208" id="path19773"/>
      <path style="stroke-width:0.26458332" inkscape:connector-curvature="0" d="m -239.94471,223.35977 c 0.1323,0 0.26459,-0.0794 0.26459,-0.26458 0,-0.18521 -0.10584,-0.26459 -0.26459,-0.26459 h -0.5027 v 0.52917 z m 0.60855,0.89958 h -0.37042 l -0.3175,-0.58208 h -0.42333 v 0.58208 h -0.3175 v -1.69333 h 0.8202 c 0.37042,0 0.58209,0.21167 0.58209,0.55563 0,0.23812 -0.13229,0.44979 -0.34396,0.5027 z m -0.79375,-2.06375 c -0.68792,0 -1.24355,0.55563 -1.24355,1.24355 0,0.68791 0.55563,1.27 1.24355,1.27 0.68791,0 1.24354,-0.55563 1.24354,-1.27 0,-0.68792 -0.55563,-1.24355 -1.24354,-1.24355 m 0,2.77813 c -0.84667,0 -1.53459,-0.68792 -1.53459,-1.53458 0,-0.84667 0.68792,-1.53459 1.53459,-1.53459 0.84666,0 1.53458,0.68792 1.53458,1.53459 0.0265,0.84666 -0.68792,1.53458 -1.53458,1.53458" id="path19777"/>
      <path style="stroke-width:0.26458332" id="path19779" d="m -255.89908,225.92623 c -1.13771,-0.18521 -1.79917,-0.34396 -1.79917,-0.82021 0,-0.34396 0.44979,-0.71437 1.50813,-0.71437 0.635,0 1.08479,0.1852 1.32291,0.44979 0.18521,0.18521 0.4498,0.23812 0.68792,0.18521 l 1.34938,-0.37042 c 0.21166,-0.0529 0.3175,-0.29104 0.21166,-0.47625 -0.635,-1.13771 -1.93146,-1.85208 -3.57187,-1.85208 -2.61938,0 -3.86292,1.48166 -3.86292,2.91041 0,2.03729 2.16958,2.46063 3.78354,2.69875 1.5875,0.23813 1.905,0.44979 1.905,0.97896 0,0.52917 -0.71437,0.82021 -1.64041,0.82021 -0.55563,0 -1.27,-0.18521 -1.69334,-0.66146 -0.18521,-0.21167 -0.47625,-0.3175 -0.74083,-0.23812 l -1.34938,0.37041 c -0.21166,0.0529 -0.3175,0.29104 -0.23812,0.47625 0.635,1.37584 2.11667,2.19604 4.02167,2.19604 2.32833,0 3.96875,-1.27 3.96875,-3.06916 0,-2.01084 -1.61396,-2.51354 -3.86292,-2.88396" inkscape:connector-curvature="0"/>
      <path style="stroke-width:0.26458332" id="path19781" d="m -276.907,224.47102 h -4.86833 v -2.91042 h 6.0325 c 0.21167,0 0.39687,-0.1852 0.39687,-0.39687 v -1.37583 c 0,-0.21167 -0.1852,-0.39688 -0.39687,-0.39688 h -7.96396 c -0.21167,0 -0.39687,0.18521 -0.39687,0.39688 v 11.43 c 0,0.21166 0.1852,0.39687 0.39687,0.39687 h 1.53458 c 0.21167,0 0.39688,-0.18521 0.39688,-0.39687 v -4.60375 h 4.86833 c 0.21167,0 0.39688,-0.18521 0.39688,-0.39688 v -1.37583 c 0,-0.18521 -0.18521,-0.37042 -0.39688,-0.37042" inkscape:connector-curvature="0"/>
      <path style="stroke-width:0.26458332" id="path19783" d="m -271.85346,219.7879 c 0,-0.21167 -0.1852,-0.39688 -0.39687,-0.39688 h -1.53458 c -0.21167,0 -0.39688,0.18521 -0.39688,0.39688 v 11.43 c 0,0.21166 0.18521,0.39687 0.39688,0.39687 h 1.53458 c 0.21167,0 0.39687,-0.18521 0.39687,-0.39687 z" inkscape:connector-curvature="0"/>
      <path style="stroke-width:0.26458332" id="path19785" d="m -266.03262,229.65685 c -1.29646,0 -2.32834,-1.11125 -2.32834,-2.54 0,-1.48166 1.03188,-2.59291 2.32834,-2.59291 1.29646,0 2.32833,1.16416 2.32833,2.59291 0,1.4023 -1.03187,2.54 -2.32833,2.54 m 4.25979,-7.11729 h -1.42875 c -0.21167,0 -0.39688,0.18521 -0.39688,0.39688 v 0.58208 c -0.71437,-0.74083 -1.66687,-1.16417 -2.77812,-1.16417 -2.35479,0 -4.31271,2.0373 -4.31271,4.73605 0,2.67229 1.95792,4.70958 4.31271,4.70958 1.11125,0 2.09021,-0.42333 2.77812,-1.16417 v 0.58209 c 0,0.21166 0.18521,0.39687 0.39688,0.39687 h 1.42875 c 0.21167,0 0.39687,-0.18521 0.39687,-0.39687 v -8.28146 c 0,-0.21167 -0.1852,-0.39688 -0.39687,-0.39688" inkscape:connector-curvature="0"/>
      <path style="stroke-width:0.26458332" id="path19787" d="m -245.71262,226.08498 2.83104,-2.96333 c 0.21167,-0.21167 0.0529,-0.58209 -0.23813,-0.58209 h -2.0902 c -0.21167,0 -0.39688,0.0794 -0.52917,0.23813 l -2.75167,3.04271 v -6.0325 c 0,-0.21167 -0.18521,-0.39688 -0.39687,-0.39688 h -1.53459 c -0.21166,0 -0.39687,0.18521 -0.39687,0.39688 v 11.43 c 0,0.21166 0.18521,0.39687 0.39687,0.39687 h 1.53459 c 0.21166,0 0.39687,-0.18521 0.39687,-0.39687 v -2.2225 l 1.16417,-1.21709 2.03729,3.46604 c 0.13229,0.21167 0.37042,0.34396 0.60854,0.34396 h 1.87854 c 0.29105,0 0.4498,-0.3175 0.29105,-0.55562 z" inkscape:connector-curvature="0"/>
      <path style="stroke-width:0.26458332" id="path19791" d="m -324.47908,219.7879 c 0,-0.21167 -0.18521,-0.39688 -0.39688,-0.39688 h -1.53458 c -0.21167,0 -0.39687,0.18521 -0.39687,0.39688 v 4.6302 h -5.2123 v -4.6302 c 0,-0.21167 -0.1852,-0.39688 -0.39687,-0.39688 h -1.56104 c -0.21167,0 -0.39688,0.18521 -0.39688,0.39688 v 11.43 c 0,0.21166 0.18521,0.39687 0.39688,0.39687 h 1.56104 c 0.21167,0 0.39687,-0.18521 0.39687,-0.39687 v -4.63021 h 5.2123 v 4.63021 c 0,0.21166 0.1852,0.39687 0.39687,0.39687 h 1.53458 c 0.21167,0 0.39688,-0.18521 0.39688,-0.39687 z" inkscape:connector-curvature="0"/>
      <path style="stroke-width:0.26458332" id="path19793" d="m -309.31846,229.65685 c -1.29645,0 -2.32833,-1.11125 -2.32833,-2.54 0,-1.48166 1.03188,-2.59291 2.32833,-2.59291 1.29646,0 2.32834,1.16416 2.32834,2.59291 0,1.4023 -1.03188,2.54 -2.32834,2.54 m 4.65667,-9.86895 c 0,-0.21167 -0.18521,-0.39688 -0.39687,-0.39688 h -1.53459 c -0.21166,0 -0.39687,0.18521 -0.39687,0.39688 v 3.62479 c -0.71438,-0.66146 -1.61396,-1.05834 -2.67229,-1.05834 -2.3548,0 -4.31271,2.0373 -4.31271,4.73605 0,2.67229 1.95791,4.70958 4.31271,4.70958 1.11125,0 2.06375,-0.42333 2.77812,-1.16417 v 0.58209 c 0,0.21166 0.18521,0.39687 0.39688,0.39687 h 1.42875 c 0.21166,0 0.39687,-0.18521 0.39687,-0.39687 z" inkscape:connector-curvature="0"/>
      <path style="stroke-width:0.26458332" id="path19795" d="m -298.41762,222.3279 c -0.9525,-0.0529 -1.905,0.29104 -2.56646,1.11125 v -0.50271 c 0,-0.21167 -0.18521,-0.39688 -0.39688,-0.39688 h -1.42875 c -0.21166,0 -0.39687,0.18521 -0.39687,0.39688 v 8.28146 c 0,0.21166 0.18521,0.39687 0.39687,0.39687 h 1.53459 c 0.21166,0 0.39687,-0.18521 0.39687,-0.39687 v -4.07459 c 0,-0.71437 0.0794,-1.45521 0.58209,-1.98437 0.44979,-0.47625 1.08479,-0.635 1.82562,-0.60854 0.21167,0 0.42333,-0.15875 0.42333,-0.39688 v -1.48167 c -0.0265,-0.15875 -0.1852,-0.3175 -0.37041,-0.34395" inkscape:connector-curvature="0"/>
      <path style="stroke-width:0.26458332" id="path19797" d="m -293.28471,229.70977 c -1.24354,0 -2.24895,-1.05833 -2.24895,-2.59292 0,-1.56104 1.00541,-2.64583 2.24895,-2.64583 1.24355,0 2.24896,1.08479 2.24896,2.64583 0,1.53459 -1.00541,2.59292 -2.24896,2.59292 m 0,-7.38187 c -2.51354,0 -4.55083,2.06375 -4.55083,4.7625 0,2.69875 2.03729,4.73604 4.55083,4.73604 2.51355,0 4.5773,-2.03729 4.5773,-4.73604 0,-2.69875 -2.0373,-4.7625 -4.5773,-4.7625" inkscape:connector-curvature="0"/>
      <path style="stroke-width:0.26458332" id="path19799" d="m -314.47783,222.53956 h -1.42875 c -0.21167,0 -0.39688,0.13229 -0.47625,0.3175 l -2.2225,5.79438 -2.2225,-5.79438 c -0.0794,-0.21166 -0.26458,-0.3175 -0.47625,-0.3175 h -1.42875 c -0.26458,0 -0.44979,0.26459 -0.37042,0.52917 l 3.33375,8.65187 -0.29104,0.71438 c -0.34396,0.89958 -0.82021,1.24354 -1.71979,1.27 -0.21167,0 -0.39688,0.18521 -0.39688,0.39687 v 1.34938 c 0,0.21167 0.15875,0.39687 0.37042,0.39687 1.69333,0.0529 2.93688,-0.34395 3.78354,-2.56645 l 3.91584,-10.18646 c 0.10583,-0.26459 -0.0794,-0.55563 -0.37042,-0.55563" inkscape:connector-curvature="0"/>
    </g>
  </g>
</svg>